<?xml version="1.0" standalone="no"?>
<!DOCTYPE svg PUBLIC "-//W3C//DTD SVG 20010904//EN"
 "http://www.w3.org/TR/2001/REC-SVG-20010904/DTD/svg10.dtd">
<svg version="1.0" xmlns="http://www.w3.org/2000/svg"
 width="575.000000pt" height="575.000000pt" viewBox="0 0 575.000000 575.000000"
 preserveAspectRatio="xMidYMid meet">
<metadata>
Created by potrace 1.11, written by Peter Selinger 2001-2013
</metadata>
<g transform="translate(0.000000,575.000000) scale(0.100000,-0.100000)"
fill="#000000" stroke="none">
<path d="M2252 5625 c-6 -12 -33 -16 -134 -17 -70 -1 -125 -5 -122 -9 2 -4
-17 -11 -43 -14 -466 -65 -931 -309 -1263 -663 -55 -59 -100 -110 -101 -114 0
-4 -13 -21 -29 -38 -16 -17 -55 -71 -86 -120 -32 -50 -62 -90 -66 -90 -5 0 -4
9 2 19 5 11 10 26 10 33 -1 15 -28 -44 -32 -70 -2 -9 -5 -19 -8 -22 -3 -3 -24
-50 -47 -105 -22 -55 -46 -101 -52 -101 -6 -1 -15 -2 -19 -3 -9 -1 -11 -50 -2
-52 3 -1 17 -2 31 -3 14 -2 32 -7 40 -11 8 -5 536 -389 1174 -853 928 -675
1161 -848 1163 -868 3 -19 9 -24 32 -24 16 0 30 5 32 11 3 9 369 11 1398 11
1623 -1 1463 1 1455 -12 -4 -6 6 -10 23 -10 34 0 47 28 27 57 -7 10 -13 21
-14 26 0 4 -1 8 -2 10 0 1 -1 25 -2 52 -1 41 -4 51 -21 55 -31 9 -90 160 -286
735 -62 180 -162 468 -210 600 -34 95 -90 233 -130 326 -29 65 -38 94 -29 99
8 6 6 13 -8 27 -11 11 -22 27 -26 36 -3 9 -11 17 -17 17 -6 0 -8 5 -5 10 3 6
2 10 -3 10 -11 0 -45 69 -47 95 -4 44 -5 46 -23 41 -13 -5 -31 12 -70 64 -29
39 -55 77 -59 85 -3 8 -9 12 -14 9 -5 -3 -9 2 -9 10 0 9 -9 25 -20 36 -11 11
-19 21 -18 23 4 3 -62 97 -68 97 -3 0 10 -22 30 -50 20 -27 32 -50 28 -50 -4
0 -33 24 -64 53 -101 95 -132 122 -213 184 -183 139 -409 259 -635 337 -80 27
-295 80 -370 91 -25 4 -47 10 -50 15 -3 4 -27 8 -55 8 -177 0 -205 2 -205 16
0 18 -53 16 -61 -3 -4 -11 -58 -14 -315 -13 -369 0 -334 -1 -334 17 0 20 -46
20 -58 0z m1286 -1747 c17 -17 42 -19 49 -2 15 39 139 -11 213 -86 53 -52 83
-107 95 -173 6 -28 4 -37 -5 -35 -9 2 -13 -8 -13 -27 0 -19 4 -29 13 -27 20 5
6 -59 -27 -124 -33 -66 -90 -121 -158 -154 -54 -27 -122 -39 -110 -21 4 7 -7
11 -30 11 -22 0 -34 -4 -30 -10 10 -16 -30 -11 -92 11 -75 28 -161 112 -191
188 -24 59 -27 86 -12 96 6 3 10 20 10 36 0 20 -4 28 -12 23 -18 -11 -1 71 26
125 55 107 228 215 274 169z"/>
<path d="M1385 5620 c-10 -17 12 -37 25 -24 8 8 6 15 -4 23 -10 9 -16 9 -21 1z"/>
<path d="M3670 5610 l-35 -7 33 -3 c17 -2 37 -3 44 -4 6 -1 13 5 16 12 4 13
-4 13 -58 2z"/>
<path d="M1438 5603 c7 -3 16 -2 19 1 4 3 -2 6 -13 5 -11 0 -14 -3 -6 -6z"/>
<path d="M1478 5603 c7 -3 16 -2 19 1 4 3 -2 6 -13 5 -11 0 -14 -3 -6 -6z"/>
<path d="M1518 5603 c7 -3 16 -2 19 1 4 3 -2 6 -13 5 -11 0 -14 -3 -6 -6z"/>
<path d="M1558 5603 c7 -3 16 -2 19 1 4 3 -2 6 -13 5 -11 0 -14 -3 -6 -6z"/>
<path d="M1598 5603 c6 -2 18 -2 25 0 6 3 1 5 -13 5 -14 0 -19 -2 -12 -5z"/>
<path d="M1678 5603 c6 -2 18 -2 25 0 6 3 1 5 -13 5 -14 0 -19 -2 -12 -5z"/>
<path d="M1728 5603 c7 -3 16 -2 19 1 4 3 -2 6 -13 5 -11 0 -14 -3 -6 -6z"/>
<path d="M1798 5603 c6 -2 18 -2 25 0 6 3 1 5 -13 5 -14 0 -19 -2 -12 -5z"/>
<path d="M1848 5603 c7 -3 16 -2 19 1 4 3 -2 6 -13 5 -11 0 -14 -3 -6 -6z"/>
<path d="M1918 5603 c7 -3 16 -2 19 1 4 3 -2 6 -13 5 -11 0 -14 -3 -6 -6z"/>
<path d="M1958 5603 c7 -3 16 -2 19 1 4 3 -2 6 -13 5 -11 0 -14 -3 -6 -6z"/>
<path d="M3303 5603 c9 -2 23 -2 30 0 6 3 -1 5 -18 5 -16 0 -22 -2 -12 -5z"/>
<path d="M3358 5603 c7 -3 16 -2 19 1 4 3 -2 6 -13 5 -11 0 -14 -3 -6 -6z"/>
<path d="M3398 5603 c7 -3 16 -2 19 1 4 3 -2 6 -13 5 -11 0 -14 -3 -6 -6z"/>
<path d="M3438 5603 c7 -3 16 -2 19 1 4 3 -2 6 -13 5 -11 0 -14 -3 -6 -6z"/>
<path d="M3478 5603 c7 -3 16 -2 19 1 4 3 -2 6 -13 5 -11 0 -14 -3 -6 -6z"/>
<path d="M3538 5603 c6 -2 18 -2 25 0 6 3 1 5 -13 5 -14 0 -19 -2 -12 -5z"/>
<path d="M3593 5603 c9 -2 23 -2 30 0 6 3 -1 5 -18 5 -16 0 -22 -2 -12 -5z"/>
<path d="M4377 5264 c-11 -11 -8 -24 4 -24 6 0 20 -10 30 -22 l20 -23 -15 25
c-8 14 -15 29 -15 35 1 12 -15 18 -24 9z"/>
<path d="M4450 5160 c12 -16 24 -30 26 -30 3 0 -4 14 -16 30 -12 17 -24 30
-26 30 -3 0 4 -13 16 -30z"/>
<path d="M4489 5103 c6 -10 22 -31 36 -48 20 -23 19 -18 -6 18 -32 46 -49 63
-30 30z"/>
<path d="M582 5051 l1 -30 18 22 c18 23 16 37 -6 37 -9 0 -13 -11 -13 -29z"/>
<path d="M559 4984 c-5 -15 -8 -29 -5 -31 2 -2 8 10 14 26 13 38 5 41 -9 5z"/>
<path d="M532 4915 c-17 -37 -14 -45 4 -12 9 16 14 31 11 33 -2 2 -9 -7 -15
-21z"/>
<path d="M501 4838 c-16 -43 -22 -68 -18 -68 3 0 12 20 20 45 16 45 14 65 -2
23z"/>
<path d="M465 4749 c-4 -6 -5 -12 -2 -15 2 -3 7 2 10 11 7 17 1 20 -8 4z"/>
<path d="M447 4701 c-4 -17 -3 -21 5 -13 5 5 8 16 6 23 -3 8 -7 3 -11 -10z"/>
<path d="M427 4651 c-4 -17 -3 -21 5 -13 5 5 8 16 6 23 -3 8 -7 3 -11 -10z"/>
<path d="M4950 4446 c0 -2 8 -10 18 -17 15 -13 16 -12 3 4 -13 16 -21 21 -21
13z"/>
<path d="M4986 4395 c4 -8 11 -15 16 -15 6 0 5 6 -2 15 -7 8 -14 15 -16 15 -2
0 -1 -7 2 -15z"/>
<path d="M5035 4325 c25 -48 44 -62 52 -38 2 6 -5 14 -16 18 -12 3 -21 9 -21
13 0 4 -9 18 -21 32 -15 19 -13 13 6 -25z"/>
<path d="M150 3943 c0 -12 5 -25 10 -28 15 -9 12 -44 -5 -62 -12 -11 -13 -19
-5 -28 12 -15 3 -66 -13 -77 -7 -4 -7 -11 0 -20 13 -17 9 -64 -6 -60 -6 1 -11
-1 -12 -5 -6 -44 -4 -62 5 -60 8 1 11 -42 10 -138 -1 -80 2 -125 6 -105 l7 35
2 -40 c3 -43 3 -45 27 -175 22 -124 86 -344 105 -365 5 -5 9 -15 9 -23 0 -45
162 -336 256 -461 26 -34 44 -65 41 -68 -7 -6 -85 57 -131 106 -17 17 -34 31
-38 31 -9 0 177 -173 192 -178 23 -9 184 -175 187 -194 2 -12 9 -25 15 -29 8
-5 11 -256 12 -917 1 -851 0 -911 -16 -921 -13 -8 -15 -17 -9 -33 10 -27 51
-35 57 -11 5 17 50 18 822 17 449 -1 820 -2 825 -3 4 0 7 -7 7 -14 0 -7 13
-13 30 -13 26 -2 30 2 30 26 0 16 -7 30 -15 34 -13 5 -15 127 -15 1015 0 887
2 1010 15 1015 15 5 22 55 8 57 -5 1 -20 2 -35 3 -15 2 -33 7 -40 13 -7 5
-523 380 -1146 833 -623 452 -1132 828 -1131 834 4 30 -3 36 -31 34 -24 -2
-30 -7 -30 -25z"/>
<path d="M132 3280 c0 -14 2 -19 5 -12 2 6 2 18 0 25 -3 6 -5 1 -5 -13z"/>
<path d="M122 3110 c0 -19 2 -27 5 -17 2 9 2 25 0 35 -3 9 -5 1 -5 -18z"/>
<path d="M113 3015 c-7 -16 -8 -27 -1 -31 15 -10 26 9 19 33 l-6 22 -12 -24z"/>
<path d="M374 2429 c-10 -17 13 -36 27 -22 12 12 4 33 -11 33 -5 0 -12 -5 -16
-11z"/>
<path d="M2850 2189 c0 -15 6 -29 13 -31 18 -7 19 -1985 0 -1992 -7 -3 -13
-18 -13 -33 0 -24 4 -28 29 -29 19 -1 31 4 34 15 3 15 68 16 747 16 655 0 744
-2 749 -15 7 -18 53 -20 59 -2 2 7 22 12 52 12 27 0 51 4 54 8 3 5 34 17 70
26 160 44 376 228 421 360 14 42 22 52 36 49 12 -4 18 1 18 13 0 11 4 36 9 57
l10 37 -34 0 c-22 0 -33 -4 -32 -12 2 -10 -133 -13 -652 -13 -519 0 -654 3
-652 13 3 16 -55 16 -60 0 -7 -19 -54 -1 -88 34 -42 41 -55 75 -36 94 14 13
11 54 -4 54 -18 0 5 51 38 83 40 38 77 54 87 37 9 -15 66 -13 62 3 -3 19 1413
20 1420 0 3 -7 18 -13 34 -13 25 0 29 4 29 29 0 16 -4 31 -9 33 -5 2 12 65 38
141 36 106 50 137 63 137 13 0 18 8 18 30 0 27 -3 30 -31 30 -17 0 -28 -4 -24
-10 7 -12 72 -11 -785 -11 -834 0 -762 -1 -755 11 4 6 -8 10 -30 10 -22 0 -34
-4 -30 -10 11 -18 -21 -11 -55 13 -37 25 -65 60 -75 96 -5 16 -4 21 4 17 6 -4
12 -2 12 3 1 6 2 17 3 24 1 6 -3 19 -10 27 -10 12 -10 21 2 47 20 40 40 58 87
78 25 10 36 12 35 4 -2 -7 12 -14 30 -16 23 -3 32 0 30 9 -3 11 148 13 822 13
633 0 824 -3 823 -12 -2 -8 10 -11 31 -10 30 2 34 5 32 27 -1 14 -4 30 -8 35
-3 6 27 107 66 225 56 166 77 217 93 224 14 7 20 18 19 37 -1 23 -5 27 -28 27
-16 -1 -28 -7 -28 -15 0 -11 -223 -13 -1340 -13 -1157 0 -1340 2 -1340 14 0
10 -10 14 -30 14 -26 -1 -30 -5 -30 -29z"/>
<path d="M5016 405 c-3 -9 -6 -22 -5 -28 0 -7 5 -1 10 12 5 13 8 26 5 28 -2 2
-6 -3 -10 -12z"/>
<path d="M4993 344 c-15 -15 -17 -31 -5 -37 12 -8 29 18 23 35 -5 13 -8 14
-18 2z"/>
<path d="M4655 140 l-80 -6 65 -2 c36 -1 75 -5 88 -8 16 -5 22 -2 22 10 0 9
-3 15 -7 14 -5 -1 -44 -5 -88 -8z"/>
</g>
</svg>
